HIERARCHY
ROOT Pelvis
{

	OFFSET     0.000000     0.000000     0.000000
	CHANNELS 6 Xposition Yposition Zposition Zrotation Xrotation Yrotation
	JOINT LowerBack
	{

		OFFSET    -0.000691     0.176488     0.017766
		CHANNELS 3 Zrotation Xrotation Yrotation
		JOINT Chest
		{

			OFFSET    -0.002754     0.128976    -0.000512
			CHANNELS 3 Zrotation Xrotation Yrotation
			JOINT back3
			{

				OFFSET     0.002471     0.201657    -0.000850
				CHANNELS 3 Zrotation Xrotation Yrotation
				JOINT Neck
				{

					OFFSET     0.001840     0.072570     0.000595
					CHANNELS 3 Zrotation Xrotation Yrotation
					JOINT Head
					{

						OFFSET     0.003323     0.152818     0.030907
						CHANNELS 3 Zrotation Xrotation Yrotation
						JOINT joint7
						{

							OFFSET     0.000612     0.183936     0.002625
							CHANNELS 3 Zrotation Xrotation Yrotation
							End Site
							{
								OFFSET     0.000000     0.000000     0.018310
							}
						}

					}

				}

				JOINT LeftCollar
				{

					OFFSET     0.053456     0.093486     0.002205
					CHANNELS 3 Zrotation Xrotation Yrotation
					JOINT LeftShoulder
					{

						OFFSET     0.112884    -0.020868     0.002319
						CHANNELS 3 Zrotation Xrotation Yrotation
						JOINT LeftElbow
						{

							OFFSET     0.297302     0.003523    -0.020737
							CHANNELS 3 Zrotation Xrotation Yrotation
							JOINT LeftWrist
							{

								OFFSET     0.290007     0.004431    -0.007313
								CHANNELS 3 Zrotation Xrotation Yrotation
								JOINT lf_hand
								{

									OFFSET     0.117001    -0.002589    -0.008771
									CHANNELS 3 Zrotation Xrotation Yrotation
									End Site
									{
										OFFSET     0.000000    -0.009821     0.000000
									}
								}

							}

						}

					}

				}

				JOINT RightCollar
				{

					OFFSET    -0.048666     0.096092     0.000301
					CHANNELS 3 Zrotation Xrotation Yrotation
					JOINT RightShoulder
					{

						OFFSET    -0.115072    -0.022479    -0.001894
						CHANNELS 3 Zrotation Xrotation Yrotation
						JOINT RightElbow
						{

							OFFSET    -0.297072     0.004954    -0.020752
							CHANNELS 3 Zrotation Xrotation Yrotation
							JOINT RightWrist
							{

								OFFSET    -0.292425    -0.005826    -0.023258
								CHANNELS 3 Zrotation Xrotation Yrotation
								JOINT rt_hand
								{

									OFFSET    -0.118185    -0.001061    -0.015047
									CHANNELS 3 Zrotation Xrotation Yrotation
									End Site
									{
										OFFSET     0.000000    -0.009987     0.000000
									}
								}

							}

						}

					}

				}

			}

			JOINT joint13
			{

				OFFSET     0.125914     0.117470     0.000000
				CHANNELS 3 Zrotation Xrotation Yrotation
				End Site
				{
					OFFSET     0.000000     0.000000    -0.017144
				}
			}

			JOINT joint14
			{

				OFFSET    -0.120063     0.114907     0.000000
				CHANNELS 3 Zrotation Xrotation Yrotation
				End Site
				{
					OFFSET     0.000000     0.000000    -0.016479
				}
			}

		}

	}

	JOINT RightHip
	{

		OFFSET    -0.109283    -0.057257     0.000987
		CHANNELS 3 Zrotation Xrotation Yrotation
		JOINT RightKnee
		{

			OFFSET     0.002149    -0.429339     0.038617
			CHANNELS 3 Zrotation Xrotation Yrotation
			JOINT RightAnkle
			{

				OFFSET    -0.001765    -0.522522    -0.077092
				CHANNELS 3 Zrotation Xrotation Yrotation
				JOINT r_ball
				{

					OFFSET    -0.000000    -0.037315     0.142913
					CHANNELS 3 Zrotation Xrotation Yrotation
					End Site
					{
						OFFSET     0.000000     0.000000     0.014648
					}
				}

			}

		}

	}

	JOINT LeftHip
	{

		OFFSET     0.098180    -0.056757     0.003895
		CHANNELS 3 Zrotation Xrotation Yrotation
		JOINT LeftKnee
		{

			OFFSET     0.007057    -0.430531     0.035812
			CHANNELS 3 Zrotation Xrotation Yrotation
			JOINT LeftAnkle
			{

				OFFSET    -0.005475    -0.521755    -0.078136
				CHANNELS 3 Zrotation Xrotation Yrotation
				JOINT lf_ball
				{

					OFFSET     0.000065    -0.036737     0.143337
					CHANNELS 3 Zrotation Xrotation Yrotation
					End Site
					{
						OFFSET     0.000000     0.000000     0.014648
					}
				}

			}

		}

	}

}

MOTION
Frames: 8
Frame Time: 0.033333
    0.000000     0.916070     0.000000    -4.347036   -12.192831   170.197617    -4.905267    -7.085197    -1.433258    -5.728714     2.260975    -2.759280     0.000000     0.000000     0.000000     0.000000     0.000000     0.000000    11.961060    -5.674426   -34.907551     0.000000     0.000000     0.000000    15.462285     1.002112     3.634512   -86.366043     0.432472    18.218447     0.994510     1.927769   -54.573952    11.965171    10.480301     8.723390     0.000000     0.000000     0.000000    -8.187543    -0.305380     2.110355    97.076576    21.430550   -32.059795    -0.897675     1.851057    51.739391    -5.085630    15.684613   -11.617960     0.000000     0.000000     0.000000     0.000000     0.000000     0.000000     0.000000     0.000000     0.000000    14.667338    -5.453641    -3.811077     0.000000    -4.499847     0.000000   -18.213186   -11.055647    -9.449695     0.000000     0.000000     0.000000    16.245781   -16.353531    18.167822    -0.003476    42.775238     0.008875    -8.846595     2.922883     8.136806     0.000000     0.000000     0.000000 
    0.009438     0.919396    -0.031454    -4.577524   -11.372990   168.962097    -4.726651    -6.722816    -0.397004    -6.667429     2.887086    -1.913771     0.000000     0.000000     0.000000     0.000000     0.000000     0.000000    11.453573    -6.308576   -34.029808     0.000000     0.000000     0.000000    16.437536     1.343830     4.550706   -85.317596    -6.920120    21.967199     1.055935     1.966703   -56.459908    13.096226     7.965541     8.548755     0.000000     0.000000     0.000000    -8.728064    -0.323931     2.129451    97.538467    24.576677   -31.648993    -0.935271     1.879402    52.910721    -4.970820    15.641929   -11.335931     0.000000     0.000000     0.000000     0.000000     0.000000     0.000000     0.000000     0.000000     0.000000    14.740532     2.003813    -3.222862     0.000000   -13.675543     0.000000   -17.779428    -8.551574    -8.210942     0.000000     0.000000     0.000000    16.998978   -15.736068    18.606195     0.000000    34.422546     0.000000   -10.819314     0.125338     8.037392     0.000000     0.000000     0.000000 
    0.018601     0.922885    -0.063843    -4.813479   -10.524830   167.681168    -4.531710    -6.415469     0.678537    -7.653927     3.398957    -1.014191     0.000000     0.000000     0.000000     0.000000     0.000000     0.000000    10.936143    -6.783968   -33.287159     0.000000     0.000000     0.000000    17.447229     1.760120     5.601066   -83.573067   -14.803413    26.550837     1.121270     2.010889   -58.284554    14.260426     5.350020     8.489377     0.000000     0.000000     0.000000    -9.268520    -0.349637     2.147808    98.004417    27.637184   -31.357328    -0.976938     1.913432    54.091648    -4.858338    15.586764   -11.047780     0.000000     0.000000     0.000000     0.000000     0.000000     0.000000     0.000000     0.000000     0.000000    14.420074     9.461495    -1.907241     0.000000   -22.685732     0.000000   -17.305641    -5.951592    -7.756784     0.000000     0.000000     0.000000    15.761580   -16.248079    19.442244     0.000000    27.790781     0.000000   -10.470451    -4.120467     8.124170     0.000000     0.000000     0.000000 
    0.028315     0.922436    -0.094362    -5.053325    -9.669823   166.382080    -4.375931    -5.982626     1.677984    -8.562611     4.076668    -0.186068     0.000000     0.000000     0.000000     0.000000     0.000000     0.000000    10.917862    -7.991683   -32.618011     0.000000     0.000000     0.000000    18.373127     2.113302     6.346159   -81.897705   -21.462103    30.162592     1.194275     2.057945   -60.251705    15.337436     2.921463     8.380119     0.000000     0.000000     0.000000   -10.403067    -0.442481     2.390446    98.493301    28.799414   -30.784763    -1.018074     1.939359    55.391548    -4.420033    14.932833   -10.384139     0.000000     0.000000     0.000000     0.000000     0.000000     0.000000     0.000000     0.000000     0.000000    13.858631    12.251744    -0.516541     0.000000   -22.669262     0.000000   -17.152990    -7.517548    -8.578619     0.000000     0.000000     0.000000    12.876878   -18.267260    20.409195     0.000000    23.605074     0.000000    -8.079979    -9.653967     7.742541     0.000000     0.000000     0.000000 
    0.039405     0.901120    -0.120203    -5.286635    -8.795290   165.080048    -4.310389    -5.197735     2.432367    -9.275848     5.142138     0.487689     0.000000     0.000000     0.000000     0.000000     0.000000     0.000000    11.924883   -11.371145   -31.651812     0.000000     0.000000     0.000000    19.134661     2.210807     6.365243   -81.901505   -25.258512    30.544510     1.276278     2.098900   -62.601482    16.226633     0.988783     8.016673     0.000000     0.000000     0.000000   -11.480997    -0.612304     3.011585    98.819298    27.391586   -29.741409    -1.071508     1.974400    56.974068    -2.871990    13.574415    -8.938348     0.000000     0.000000     0.000000     0.000000     0.000000     0.000000     0.000000     0.000000     0.000000    13.934523    12.458493     0.123477     0.000000   -17.645527     0.000000   -17.667736   -11.643414    -9.350535     0.000000     0.000000     0.000000     6.464208   -22.947590    20.115818     0.000000    23.754614     0.000000    -1.662291   -15.057303     7.373700     0.000000     0.000000     0.000000 
    0.050203     0.898870    -0.141824    -5.485524    -7.912355   163.783035    -4.449402    -3.715351     2.959123    -9.713036     6.950225     1.055496     0.000000     0.000000     0.000000     0.000000     0.000000     0.000000    13.448578   -16.614174   -30.232143     0.000000     0.000000     0.000000    19.345421     1.868812     5.333596   -84.355980   -25.579216    25.902380     1.382940     2.147562   -65.556084    16.874109    -0.610663     7.438736     0.000000     0.000000     0.000000   -12.603977    -0.869425     3.853608    98.688477    24.067448   -27.347820    -1.131929     2.013005    58.695362    -0.949010    11.661294    -7.054879     0.000000     0.000000     0.000000     0.000000     0.000000     0.000000     0.000000     0.000000     0.000000    14.227685    10.340438    -0.706395     0.000000   -10.347686     0.000000   -19.800962   -12.337630    -9.172899     0.000000     0.000000     0.000000     5.139596   -23.288425    17.822598     0.000000    19.297333     0.000000    -1.799188   -10.946582     6.122519     0.000000     0.000000     0.000000 
    0.059447     0.899966    -0.161775    -5.652907    -7.050944   162.516022    -4.709976    -1.761895     3.324285    -9.971236     9.295171     1.531294     0.000000     0.000000     0.000000     0.000000     0.000000     0.000000    14.201129   -20.773441   -28.969694     0.000000     0.000000     0.000000    19.175690     1.222927     3.540568   -87.692291   -22.961929    17.886614     1.509129     2.198325   -68.934975    17.342157    -1.970070     6.696656     0.000000     0.000000     0.000000   -14.063661    -1.159781     4.595663    98.711517    19.140697   -23.592108    -1.180922     2.049535    60.235752    -0.617786     8.929809    -5.583332     0.000000     0.000000     0.000000     0.000000     0.000000     0.000000     0.000000     0.000000     0.000000    14.575261     2.461844    -2.488039     0.000000     5.704894     0.000000   -22.796038    -7.307980    -9.240838     0.000000     0.000000     0.000000     4.869748   -22.819847    15.301622     0.000000    14.148494     0.000000    -3.113401    -5.280811     5.015375     0.000000     0.000000     0.000000 
    0.068572     0.898887    -0.180393    -5.772773    -6.200469   161.295135    -4.930776     0.060447     3.476345   -10.105067    11.548383     1.815081     0.000000     0.000000     0.000000     0.000000     0.000000     0.000000    13.255840   -22.007769   -28.546280     0.000000     0.000000     0.000000    19.305370     0.521549     1.522353   -90.183922   -18.019016     9.248917     1.644829     2.248218   -72.376259    17.666174    -2.681872     5.646729     0.000000     0.000000     0.000000   -16.159706    -1.497062     5.111001   100.373566    11.013016   -19.686998    -1.215650     2.061844    61.043106    -3.073323     3.763604    -5.462564     0.000000     0.000000     0.000000     0.000000     0.000000     0.000000     0.000000     0.000000     0.000000    13.800561    -6.752470    -4.195960     0.000000    21.758104     0.000000   -20.103676     5.497382    -6.428650     0.000000     0.000000     0.000000     4.936575   -22.470383    14.110994     0.000000    11.676690     0.000000    -3.929404    -2.450067     4.623109     0.000000     0.000000     0.000000 
